<?xml version="1.0" encoding="UTF-8" standalone="no"?>
<svg
   xmlns:dc="http://purl.org/dc/elements/1.1/"
   xmlns:cc="http://creativecommons.org/ns#"
   xmlns:rdf="http://www.w3.org/1999/02/22-rdf-syntax-ns#"
   xmlns:svg="http://www.w3.org/2000/svg"
   xmlns="http://www.w3.org/2000/svg"
   xmlns:sodipodi="http://sodipodi.sourceforge.net/DTD/sodipodi-0.dtd"
   xmlns:inkscape="http://www.inkscape.org/namespaces/inkscape"
   width="134.7243mm"
   height="50mm"
   version="1.1"
   viewBox="0 0 134.7243 50.000002"
   id="svg8"
   sodipodi:docname="Simple_Logo.svg"
   inkscape:version="0.92.2 5c3e80d, 2017-08-06">
  <defs
     id="defs12" />
  <sodipodi:namedview
     pagecolor="#ffffff"
     bordercolor="#666666"
     borderopacity="1"
     objecttolerance="10"
     gridtolerance="10"
     guidetolerance="10"
     inkscape:pageopacity="0"
     inkscape:pageshadow="2"
     inkscape:window-width="1598"
     inkscape:window-height="904"
     id="namedview10"
     showgrid="false"
     fit-margin-top="0"
     fit-margin-left="0"
     fit-margin-right="0"
     fit-margin-bottom="0"
     inkscape:zoom="0.14014824"
     inkscape:cx="1027.4766"
     inkscape:cy="-474.90802"
     inkscape:window-x="0"
     inkscape:window-y="0"
     inkscape:window-maximized="0"
     inkscape:current-layer="svg8" />
  <metadata
     id="metadata2">
    <rdf:RDF>
      <cc:Work
         rdf:about="">
        <dc:format>image/svg+xml</dc:format>
        <dc:type
           rdf:resource="http://purl.org/dc/dcmitype/StillImage" />
        <dc:title></dc:title>
      </cc:Work>
    </rdf:RDF>
  </metadata>
  <g
     transform="matrix(0.24778706,0,0,0.24778706,47.537492,-6.4585516)"
     id="g6">
    <path
       d="m -191.71,226.33 c 0.0773,-0.83675 0.66467,-7.5935 1.3052,-15.015 2.9311,-33.959 3.4175,-39.169 3.6727,-39.339 0.14916,-0.0994 1.313,-0.37216 2.5862,-0.60615 9.3939,-1.7264 20.7,-1.9908 45.998,-1.0759 4.3837,0.15854 10.526,-0.20056 13.361,-0.7812 2.869,-0.58742 7.8374,-2.2622 10.506,-3.5415 4.6085,-2.209 10.453,-6.736 15.264,-11.823 1.3678,-1.4462 2.1515,-2.1533 1.7414,-1.5712 -1.5577,2.211 -3.7747,4.7909 -6.3383,7.3759 -4.8161,4.8563 -9.2325,8.0302 -15.353,11.034 -4.4183,2.1682 -7.0353,3.1477 -11.642,4.3572 -7.5747,1.9889 -12.872,2.5462 -24.011,2.5261 -4.6203,-0.008 -8.4005,0.0471 -8.4005,0.1232 0,0.38788 10.392,4.6533 13.846,5.6829 5.6206,1.6757 7.889,1.9731 14.994,1.9658 7.2411,-0.007 9.2852,-0.30154 14.817,-2.1315 11.054,-3.6568 21.443,-12.205 30.704,-25.26 5.6341,-7.9433 11.742,-19.672 16.318,-31.337 4.041,-10.3 9.652,-29.005 10.04,-33.47 l 0.12654,-1.4552 -0.61463,0.68827 c -0.33805,0.37855 -1.318,1.5433 -2.1776,2.5883 -6.5502,7.9628 -15.876,12.494 -28.417,13.807 -3.8276,0.40077 -13.857,0.18382 -18.306,-0.396 -12.321,-1.6056 -26.378,-5.3611 -41.108,-10.982 -9.1759,-3.5017 -17.308,-10.976 -22.562,-20.737 -1.4945,-2.7767 -3.0849,-6.277 -2.9248,-6.4371 0.0498,-0.0498 1.3915,-0.38181 2.9815,-0.73774 3.691,-0.82628 6.807,-1.176 12.372,-1.3886 4.3419,-0.16585 4.4514,-0.18415 4.3299,-0.72335 -0.0686,-0.30426 -0.55948,-2.101 -1.091,-3.9928 -1.1948,-4.2528 -2.5288,-10.72 -2.5319,-12.274 l -0.002,-1.1611 4.4318,0.15367 c 6.3085,0.21875 9.8472,1.094 15.287,3.7808 7.314,3.6126 13.542,10.217 17.823,18.899 l 1.5435,3.1304 0.18093,-2.3967 c 0.4925,-6.5242 2.3773,-11.853 6.2297,-17.612 4.8228,-7.2102 12.294,-12.864 20.147,-15.246 4.5038,-1.3662 6.6142,-1.5733 13.468,-1.3214 10.353,0.38051 12.532,0.19991 16.361,-1.3563 0.8242,-0.335 6.9648,-3.2402 13.646,-6.456 6.681,-3.2158 12.19,-5.8042 12.242,-5.7521 0.0522,0.0522 -2.3331,2.5234 -5.3006,5.4916 -2.9675,2.9682 -6.3846,6.6469 -7.5935,8.1749 -6.3816,8.0659 -10.257,16.167 -11.656,24.367 -0.46797,2.7424 -0.53902,3.9992 -0.43234,7.6473 0.17115,5.8528 0.83519,8.9245 4.2899,19.844 0.98802,3.1229 1.2868,4.5501 1.6061,7.6729 1.6906,16.533 0.60905,32.23 -3.3089,48.022 -4.1013,16.531 -11.135,32.501 -20.513,46.571 -3.1334,4.7013 -7.4474,10.615 -10.01,13.721 -2.5367,3.0751 -2.1959,3.0374 2.8916,-0.31956 4.4881,-2.9615 6.132,-4.2705 11.395,-9.0738 5.2442,-4.7861 8.8711,-8.9139 13.227,-15.054 11.102,-15.65 16.528,-32.238 16.528,-50.529 0,-11.534 -2.1916,-22.145 -6.548,-31.705 -0.49212,-1.0799 -0.89476,-2.0081 -0.89476,-2.0627 0,-0.0546 2.5003,-0.0993 5.5562,-0.0993 3.0559,0 5.5562,0.068 5.5562,0.15115 0,0.0831 1.4848,16.841 3.2995,37.24 3.9656,44.576 6.547,73.948 7.2709,82.73 0.29391,3.5653 0.59975,7.0478 0.67964,7.7391 l 0.14526,1.2568 h -157.17 z M -88.14,100.32 c 5.5353,-0.57354 10.401,-1.9804 15.478,-4.4751 3.7857,-1.8602 9.0176,-5.574 7.8526,-5.574 -0.1551,0 -1.9448,0.40828 -3.9771,0.9073 -19.869,4.8788 -36.469,2.3514 -54.212,-8.2545 -2.2192,-1.3265 -4.0349,-2.3659 -4.0349,-2.3099 0,0.056 0.26001,0.55516 0.57779,1.1092 1.0266,1.7898 4.2465,5.3996 7.0951,7.9545 3.3842,3.0352 6.1766,4.929 9.8123,6.655 7.4434,3.5335 14.002,4.7551 21.409,3.9876 z M 5.787,126.519 V 42.646 h 4.2333 v 167.75 H 5.787 Z m 112.8,65.671 c -2.6483,-0.94634 -4.5149,-2.6556 -5.5489,-5.081 -2.0449,-4.7968 0.0459,-10.511 4.6329,-12.661 2.1365,-1.0014 5.0905,-0.99898 7.2349,0.006 4.6017,2.1564 6.5897,7.4392 4.7,12.49 -1.5848,4.2357 -6.8419,6.7386 -11.019,5.246 z m 5.4308,-2.3314 c 2.3043,-1.1483 4.0111,-4.0071 4.0111,-6.7184 0,-2.7113 -1.7068,-5.5702 -4.0111,-6.7184 -3.3499,-1.6694 -6.9076,-0.21514 -8.665,3.5418 -0.8201,1.7533 -0.91223,4.5347 -0.20457,6.1765 1.6322,3.7869 5.4882,5.4035 8.8695,3.7185 z m 25.901,2.5353 c -2.4726,-0.62377 -4.6897,-2.4012 -5.8492,-4.6894 -2.495,-4.9237 -0.70625,-10.766 4.0068,-13.086 1.5812,-0.77839 2.009,-0.87101 4.0238,-0.87101 1.9279,0 2.4707,0.10618 3.7472,0.73302 2.8551,1.4021 4.8579,4.3892 5.1677,7.7077 l 0.16301,1.7457 h -15.687 l 0.003,0.7276 c 0.007,2.0396 2.5502,5.1937 4.7088,5.8404 2.4689,0.7397 5.2131,-0.0224 6.8682,-1.9075 0.77399,-0.88152 0.95255,-0.96222 1.784,-0.80623 1.0733,0.20135 1.086,0.24227 0.41632,1.3406 -1.5159,2.4861 -6.0984,4.0859 -9.3522,3.2651 z m 8.7292,-11.37 c -0.54795,-4.0852 -5.3919,-6.7242 -9.1882,-5.0058 -2.0982,0.94978 -3.3978,2.5956 -3.934,4.9822 l -0.24307,1.0818 h 13.507 z m 9.2643,11.245 c -1.6006,-0.40568 -2.7547,-0.92179 -3.9662,-1.7737 -0.56655,-0.39837 -0.67088,-0.60988 -0.47188,-0.95663 0.70178,-1.2228 0.67085,-1.2198 2.2944,-0.22787 1.9433,1.1873 3.629,1.6099 5.7443,1.4401 2.7827,-0.22337 4.1407,-1.3537 4.1407,-3.4464 0,-1.6916 -1.0653,-2.3642 -5.5424,-3.4991 -5.0269,-1.2743 -6.341,-2.4219 -6.0065,-5.2459 0.22413,-1.8923 1.1556,-3.1512 3.0026,-4.0581 1.3466,-0.66125 1.8269,-0.75292 3.9161,-0.74751 1.9996,0.005 2.6145,0.1156 3.8364,0.68905 0.80037,0.3756 1.7191,0.90861 2.0417,1.1845 l 0.58647,0.50157 -0.53935,0.64811 c -0.45016,0.54096 -0.61275,0.59455 -0.98335,0.32414 -1.8839,-1.3746 -5.33,-2.0269 -7.2904,-1.38 -1.3302,0.43903 -2.2818,1.6566 -2.2818,2.9199 0,2.01 0.31369,2.2348 4.8058,3.4455 4.1674,1.1232 5.6485,1.8803 6.3436,3.2429 0.70157,1.3752 0.53504,3.2733 -0.41286,4.7057 -1.4099,2.1305 -5.6096,3.1482 -9.2176,2.2338 z m 19.202,-0.0789 c -2.6483,-0.94634 -4.5149,-2.6556 -5.5489,-5.081 -2.0449,-4.7968 0.0459,-10.511 4.6328,-12.661 2.1365,-1.0014 5.0905,-0.99898 7.2349,0.006 4.6017,2.1564 6.5897,7.4392 4.7,12.49 -1.5848,4.2357 -6.8419,6.7386 -11.019,5.246 z m 5.4308,-2.3314 c 2.3043,-1.1483 4.0111,-4.0071 4.0111,-6.7184 0,-2.7113 -1.7068,-5.5702 -4.0111,-6.7184 -3.3499,-1.6694 -6.9076,-0.21514 -8.665,3.5418 -0.8201,1.7533 -0.91223,4.5347 -0.20457,6.1765 1.6322,3.7869 5.4882,5.4035 8.8695,3.7185 z m 48.655,2.5353 c -2.4726,-0.62377 -4.6897,-2.4012 -5.8492,-4.6894 -2.495,-4.9237 -0.70626,-10.766 4.0068,-13.086 1.5812,-0.77839 2.009,-0.87101 4.0238,-0.87101 1.9279,0 2.4707,0.10618 3.7472,0.73302 2.8551,1.4021 4.8579,4.3892 5.1677,7.7077 l 0.16301,1.7457 h -15.687 l 0.003,0.7276 c 0.007,2.0396 2.5502,5.1937 4.7088,5.8404 2.4689,0.7397 5.2131,-0.0224 6.8682,-1.9075 0.77399,-0.88152 0.95255,-0.96222 1.784,-0.80623 1.0733,0.20135 1.086,0.24227 0.41632,1.3406 -1.5159,2.4861 -6.0984,4.0859 -9.3522,3.2651 z m 8.7292,-11.37 c -0.54795,-4.0852 -5.3919,-6.7242 -9.1882,-5.0058 -2.0982,0.94978 -3.3978,2.5956 -3.934,4.9822 l -0.24308,1.0818 h 13.507 z m 53.072,11.166 c -2.6483,-0.94634 -4.5149,-2.6556 -5.5489,-5.081 -2.0449,-4.7968 0.0459,-10.511 4.6328,-12.661 2.1365,-1.0014 5.0905,-0.99898 7.2349,0.006 4.6017,2.1564 6.5897,7.4392 4.7,12.49 -1.5848,4.2357 -6.8419,6.7386 -11.019,5.246 z m 5.4308,-2.3314 c 2.3043,-1.1483 4.0111,-4.0071 4.0111,-6.7184 0,-2.7113 -1.7068,-5.5702 -4.0111,-6.7184 -3.35,-1.6694 -6.9076,-0.21514 -8.665,3.5418 -0.8201,1.7533 -0.91223,4.5347 -0.20457,6.1765 1.6322,3.7869 5.4882,5.4035 8.8696,3.7185 z m 27.753,2.5353 c -2.4726,-0.62377 -4.6897,-2.4012 -5.8492,-4.6894 -2.495,-4.9237 -0.70625,-10.766 4.0068,-13.086 1.5812,-0.77839 2.009,-0.87101 4.0238,-0.87101 1.9279,0 2.4707,0.10618 3.7472,0.73302 2.8551,1.4021 4.8579,4.3892 5.1677,7.7077 l 0.16301,1.7457 h -15.687 l 0.003,0.7276 c 0.007,2.0396 2.5502,5.1937 4.7088,5.8404 2.4689,0.7397 5.2131,-0.0224 6.8682,-1.9075 0.77398,-0.88152 0.95255,-0.96222 1.784,-0.80623 1.0733,0.20135 1.086,0.24227 0.41633,1.3406 -1.5159,2.4861 -6.0984,4.0859 -9.3522,3.2651 z m 8.7292,-11.37 c -0.54795,-4.0852 -5.3919,-6.7242 -9.1882,-5.0058 -2.0982,0.94978 -3.3978,2.5956 -3.934,4.9822 l -0.24307,1.0818 h 13.507 z m -285.68,-0.94182 c -2.8377,-6.7715 -5.1991,-12.425 -5.2476,-12.564 -0.0485,-0.13882 0.4876,-0.25239 1.1914,-0.25239 h 1.2795 l 4.4694,10.98 c 2.4582,6.0391 4.5443,10.98 4.6357,10.98 0.0915,0 1.2011,-2.493 2.4659,-5.54 l 2.2996,-5.54 -2.1074,-5.1655 c -1.1591,-2.841 -2.1074,-5.2364 -2.1074,-5.3231 0,-0.0867 0.49963,-0.12096 1.1103,-0.0762 l 1.1103,0.0814 1.7106,4.3581 c 1.3502,3.4401 1.7579,4.2482 1.9352,3.8365 0.12358,-0.28691 0.91492,-2.2481 1.7585,-4.3581 l 1.5338,-3.8365 1.1092,-0.0814 c 0.61005,-0.0447 1.1074,0.0148 1.1052,0.13229 -0.003,0.11751 -0.94316,2.5165 -2.091,5.3311 l -2.087,5.1175 2.2268,5.2972 c 1.2247,2.9135 2.3187,5.4614 2.431,5.6621 0.12994,0.23217 1.8367,-3.6741 4.6928,-10.74 l 4.4887,-11.105 1.2762,-0.005 c 0.91831,-0.004 1.2522,0.0916 1.1906,0.33987 -0.047,0.18976 -2.4046,5.8452 -5.239,12.568 l -5.1535,12.223 h -2.1445 l -2.5333,-6.0193 c -1.3934,-3.3106 -2.6313,-5.9984 -2.7511,-5.973 -0.11975,0.0254 -1.3535,2.7341 -2.7416,6.0193 l -2.5239,5.973 -2.1341,-0.008 z m 33.867,-0.64573 v -12.965 h 2.3812 v 11.328 l 1.6536,-1.6437 c 1.9928,-1.9808 3.8218,-2.7049 6.21,-2.4584 2.0326,0.20979 3.2744,1.0975 4.215,3.0132 l 0.75367,1.5348 0.0854,7.0776 0.0853,7.0776 h -2.3866 l -0.0827,-6.6807 c -0.0761,-6.1503 -0.1261,-6.7636 -0.62998,-7.7241 -0.83455,-1.5908 -1.7191,-2.1247 -3.5011,-2.1128 -1.7918,0.0119 -3.1823,0.66101 -4.5876,2.1416 -1.774,1.869 -1.8151,2.0623 -1.8151,8.5421 v 5.834 h -2.3812 z m 42.877,12.261 c -0.5973,-0.53369 -0.92761,-1.1265 -1.0865,-1.9499 -0.12555,-0.65072 -0.23344,-6.154 -0.23977,-12.229 l -0.0115,-11.046 h 2.3649 l 0.1486,22.801 0.6586,0.53312 c 0.5247,0.42474 0.93676,0.51006 2.0267,0.41967 1.3428,-0.11135 1.3711,-0.0987 1.5275,0.68356 0.0877,0.43835 0.0432,0.91318 -0.0987,1.0552 -0.142,0.14199 -1.1972,0.31252 -2.3449,0.37896 -2.0066,0.11616 -2.1197,0.0913 -2.9449,-0.646 z m 67.189,-8.557 v -9.2604 h 2.1167 v 3.9198 l 1.6704,-1.6704 c 1.3116,-1.3116 1.9754,-1.761 3.0907,-2.0922 3.3863,-1.0056 6.0231,0.0189 7.2596,2.8209 l 0.56301,1.2757 0.83833,-1.1894 c 1.6628,-2.359 4.4018,-3.6126 7.0315,-3.2183 1.7683,0.26518 2.8412,1.1027 3.7558,2.932 l 0.79375,1.5875 0.0886,7.0776 0.0885,7.0776 h -2.426 v -6.1006 c 0,-3.6817 -0.11933,-6.5744 -0.30097,-7.2958 -1.1037,-4.3831 -6.3922,-4.2289 -8.9676,0.26137 l -0.78058,1.361 -0.006,11.774 h -2.3812 v -5.9401 c 0,-6.8905 -0.22085,-8.3566 -1.443,-9.5788 -2.2027,-2.2027 -6.1818,-0.89405 -7.9263,2.6068 -0.67374,1.352 -0.68483,1.4675 -0.68483,7.1431 v 5.7689 h -2.3812 v -9.2604 z m 66.571,8.8577 c -1.507,-0.41376 -4.2548,-1.7504 -5.142,-2.5012 -0.64153,-0.54292 -0.6237,-1.0315 0.0709,-1.9446 0.34864,-0.45829 0.43606,-0.4356 1.7172,0.44569 2.1078,1.4499 4.0465,2.0846 6.7928,2.2238 3.1367,0.15898 5.0023,-0.34542 6.1617,-1.6659 0.72038,-0.82046 0.82185,-1.1284 0.82185,-2.494 0,-2.7221 -1.2623,-3.6869 -6.5801,-5.0295 -5.6356,-1.4228 -7.5806,-2.447 -8.4082,-4.4278 -0.95914,-2.2955 -0.0502,-5.8149 1.9235,-7.4476 2.8487,-2.3565 9.0302,-2.5489 12.712,-0.39558 1.4809,0.86615 1.7833,1.2572 1.4388,1.8605 -0.68342,1.1967 -0.66757,1.1952 -2.286,0.22064 -0.85579,-0.51534 -1.9776,-1.0541 -2.4929,-1.1973 -1.2551,-0.34868 -4.6528,-0.3305 -5.958,0.0319 -1.5601,0.43312 -2.9567,1.9536 -3.1835,3.4658 -0.45263,3.0184 0.884,4.1869 6.2976,5.5054 4.4237,1.0775 5.8839,1.6239 7.1667,2.6819 2.0766,1.7128 2.6228,4.7225 1.3285,7.3198 -0.80433,1.6141 -2.2158,2.6987 -4.3286,3.3261 -1.7524,0.52041 -6.1923,0.53246 -8.0519,0.0219 z m 19.551,0.15028 c -0.29104,-0.12038 -0.82683,-0.53894 -1.1906,-0.93014 l -0.66146,-0.71128 -0.0779,-7.3874 -0.0779,-7.3875 h -2.6223 v -1.8521 h 2.6458 v -6.0854 h 2.3812 v 6.0854 h 4.2333 v 1.8521 h -4.2333 v 13.253 l 0.64942,0.64944 c 0.75576,0.75573 2.0447,0.85745 3.446,0.27195 l 0.90341,-0.37747 0.30507,0.92437 c 0.1678,0.5084 0.26345,0.96285 0.21257,1.0099 -0.0509,0.047 -0.66223,0.27719 -1.3585,0.51144 -1.3399,0.45077 -3.6699,0.53953 -4.5548,0.1735 z m 29.766,-9.008 v -9.2604 h 2.1167 l 0.0124,2.1828 0.0124,2.1828 0.7152,-0.92068 c 1.5616,-2.0103 3.1006,-3.0267 5.0565,-3.3395 l 1.0826,-0.17312 v 1.2244 c 0,1.2045 -0.014,1.2245 -0.85989,1.227 -1.0699,0.003 -3.317,1.0407 -4.0733,1.8806 -1.6473,1.8296 -1.6794,1.9894 -1.6804,8.3694 v 5.887 h -2.3812 v -9.2604 z m -177.44,-40.853 c -2.5785,-0.49384 -3.602,-0.84632 -5.9161,-2.0375 -4.8646,-2.5039 -8.3384,-6.9807 -9.4226,-12.143 -0.54282,-2.5846 -0.36632,-6.3598 0.41172,-8.8059 2.104,-6.6149 9.4424,-11.677 18.717,-12.911 5.2873,-0.70361 13.724,0.0813 18.562,1.7269 l 1.8943,0.64429 -0.004,-2.9608 c -0.008,-5.3114 -1.0397,-8.4131 -3.6737,-11.047 -2.8213,-2.8214 -6.12,-3.8465 -11.634,-3.6158 -5.1742,0.21648 -9.309,1.5686 -14.702,4.8075 l -2.7203,1.6338 -1.9026,-3.816 c -1.0464,-2.0988 -1.8666,-3.8478 -1.8226,-3.8868 0.044,-0.0389 0.91348,-0.58092 1.9321,-1.2044 4.3693,-2.6743 9.9786,-4.8521 14.758,-5.7295 3.6028,-0.66149 10.622,-0.60598 13.95,0.11032 8.6328,1.8584 14.288,6.601 16.652,13.966 1.2136,3.7799 1.3391,5.534 1.3407,18.738 0,7.5575 0.10531,12.592 0.27369,13.198 0.3103,1.1172 1.3526,2.0626 2.2741,2.0626 h 0.62577 v 10.545 l -1.5214,0.21588 c -2.9393,0.41709 -6.1487,0.23722 -7.6748,-0.43013 -2.5685,-1.1231 -3.9408,-3.3649 -4.2119,-6.8802 -0.0903,-1.1703 -0.20658,-2.1279 -0.2585,-2.1279 -0.0519,0 -1.0761,0.98861 -2.2759,2.1969 -3.6709,3.6969 -7.5631,5.8825 -12.878,7.2314 -3.1926,0.8103 -8.0329,1.0434 -10.772,0.51878 z m 12.017,-9.1376 c 3.7898,-0.78204 6.5271,-2.2337 9.218,-4.8884 1.2128,-1.1966 2.3867,-2.61 2.6085,-3.1409 0.30562,-0.7315 0.4033,-2.0145 0.4033,-5.2977 v -4.3324 l -2.3151,-0.70133 c -3.7841,-1.1463 -6.0817,-1.54 -9.8672,-1.6907 -4.4934,-0.1789 -7.1299,0.28243 -10.218,1.788 -3.5666,1.7386 -5.4813,4.0446 -5.9084,7.1157 -0.72612,5.2214 2.6738,9.9805 8.0686,11.294 1.9805,0.48226 5.2545,0.42245 8.0109,-0.14634 z m 164.23,9.2393 c -7.6793,-0.99199 -14.616,-4.8046 -19.262,-10.587 -2.2764,-2.8331 -4.6959,-7.6347 -5.6615,-11.236 -0.65781,-2.4529 -0.70953,-3.0316 -0.70953,-7.9375 0,-4.8639 0.0554,-5.4965 0.68487,-7.8247 2.3991,-8.8735 7.5918,-15.443 15.159,-19.177 5.9391,-2.9312 12.295,-3.909 18.919,-2.9104 12.833,1.9345 22.282,11.226 24.469,24.06 0.40587,2.3813 0.53768,7.3492 0.23513,8.862 l -0.16536,0.82683 h -46.573 l 0.17582,1.4958 c 0.66066,5.6212 4.6825,11.357 9.6866,13.814 5.0518,2.4805 10.606,2.4993 15.772,0.0534 2.4892,-1.1783 5.4721,-3.8028 6.4787,-5.7003 0.34894,-0.65774 0.78833,-1.1959 0.9764,-1.1959 0.31125,0 9.8658,2.6564 10.062,2.7974 0.19159,0.13793 -1.3068,2.7493 -2.4504,4.2707 -3.6725,4.8855 -10.132,8.7056 -16.919,10.005 -2.6327,0.50417 -8.3761,0.7068 -10.877,0.38373 z m 21.779,-35.882 c -0.90038,-5.7417 -4.6106,-10.928 -9.5112,-13.296 -3.0346,-1.466 -5.4585,-1.9636 -8.828,-1.8121 -8.7881,0.3951 -14.985,6.2569 -16.638,15.739 l -0.14991,0.8599 h 35.361 z m -287.55,-4.4619 v -39.555 l 14.883,2.2e-4 c 14.776,2.2e-4 18.835,0.1713 22.688,0.95622 4.4447,0.90554 9.3359,2.9498 13.289,5.5539 2.5576,1.6849 7.1756,6.3354 8.9052,8.9678 4.4593,6.7868 6.6457,14.723 6.6457,24.123 0,18.368 -9.0154,32.137 -24.384,37.242 -6.1776,2.0518 -8.7569,2.2676 -27.106,2.2676 h -14.921 z m 35.851,27.554 c 6.5464,-2.0076 11.432,-6.0457 14.474,-11.963 2.3995,-4.6678 3.4414,-9.376 3.4504,-15.591 0.0188,-13.126 -5.3502,-22.441 -15.329,-26.595 -3.9513,-1.6449 -5.6933,-1.8406 -16.42,-1.8445 l -9.5911,-0.003 v 56.923 l 21.034,-0.1966 z m 105.17,-17.103 v -29.104 h 11.112 l 0.0156,5.7547 c 0.0124,4.5614 0.0809,5.6506 0.33072,5.2528 0.17336,-0.27605 1.0006,-1.3766 1.8383,-2.4456 6.4601,-8.2439 20.953,-12.103 29.556,-7.8698 4.4758,2.2022 7.2887,6.5859 8.6391,13.463 0.41722,2.125 0.47789,4.6239 0.56377,23.217 l 0.0963,20.836 h -12.2 l -0.003,-17.793 c -0.003,-19.02 -0.11721,-21.129 -1.3364,-24.387 -1.3113,-3.5048 -4.3898,-5.8523 -8.0548,-6.1423 -6.3917,-0.5057 -13.813,4.199 -17.225,10.919 l -1.0317,2.0324 -0.0716,17.686 -0.0716,17.686 h -12.16 v -29.104 z m 69.321,5.424 v -23.68 h -7.9375 v -9.525 h 7.8677 l 0.13896,-4.1672 c 0.1102,-3.305 0.28016,-4.7076 0.82156,-6.7791 1.9491,-7.4577 6.3258,-12.345 12.622,-14.093 2.677,-0.74347 8.0908,-0.62845 11.387,0.24193 3.6038,0.95154 7.1681,2.5162 6.9935,3.0701 -0.26445,0.83924 -2.5246,8.5971 -2.5246,8.6655 0,0.0383 -0.75457,-0.28341 -1.6768,-0.71498 -4.6457,-2.174 -9.4042,-2.0344 -11.993,0.35195 -2.4579,2.2656 -3.5281,5.4277 -3.5281,10.425 v 3.0004 h 14.817 v 9.525 h -14.817 v 47.36 h -12.171 z m -375.97,12.654 c -4.4488,-0.13929 -10.914,-0.66196 -22.357,-1.8076 -13.822,-1.3836 -17.234,-1.6561 -23.548,-1.8799 -7.6753,-0.27204 -14.737,0.47992 -20.968,2.2328 l -2.712,0.76289 0.008,-0.82185 c 0.0141,-1.4133 1.2221,-14.179 1.3542,-14.311 0.29364,-0.29364 13.449,2.0952 34.224,6.2146 20.695,4.1035 23.436,4.5266 32.621,5.0356 11.288,0.62557 21.229,-0.74711 29.085,-4.016 2.6829,-1.1163 3.6444,-1.6198 6.8975,-3.6118 1.0607,-0.6495 1.9883,-1.1211 2.0614,-1.048 0.24792,0.24792 -2.6183,3.1463 -4.7829,4.8365 -5.1996,4.0601 -10.788,6.5306 -17.345,7.6683 -2.3501,0.40775 -9.5525,0.95467 -11.363,0.86287 -0.50932,-0.0258 -1.9381,-0.0786 -3.175,-0.11737 z"
       id="path4"
       inkscape:connector-curvature="0"
       style="fill:#008000;stroke-width:0.26458001" />
  </g>
</svg>
